<svg width="41" height="32" viewBox="0 0 41 32" fill="none" xmlns="http://www.w3.org/2000/svg">
<path d="M3.23299 31.755H9.58932V15.7901L0.506348 8.75155V28.9377C0.506348 29.6849 0.793618 30.4015 1.30496 30.9298C1.81631 31.4582 2.50984 31.755 3.23299 31.755Z" fill="#4285F4"/>
<path d="M31.4111 31.7547H37.7745C38.133 31.7554 38.4881 31.683 38.8195 31.5418C39.1509 31.4005 39.4521 31.1931 39.7059 30.9314C39.9596 30.6698 40.1609 30.359 40.2983 30.0168C40.4356 29.6746 40.5063 29.3079 40.5063 28.9374V8.74583L31.4234 15.7844L31.4111 31.7547Z" fill="#34A853"/>
<path d="M31.4111 3.58052V15.7897L40.4941 8.75115V4.99004C40.4941 1.50686 36.6513 -0.481984 33.9491 1.60792L31.4111 3.58052Z" fill="#FBBC04"/>
<path d="M9.58932 15.7901L9.58934 3.58082L20.4959 12.0325L31.4042 3.58082V15.79L20.4959 24.2417L9.58932 15.7901Z" fill="#EA4335"/>
<path d="M0.506348 4.99004V8.74574L9.58932 15.7843L9.58934 3.58082L7.05133 1.60792C4.34914 -0.481984 0.506348 1.50686 0.506348 4.99004Z" fill="#C5221F"/>
</svg>
